<svg width="128" height="128" viewBox="0 0 128 128" fill="none" xmlns="http://www.w3.org/2000/svg">
<rect width="128" height="128" fill="white" fill-opacity="0.01"/>
<circle cx="51" cy="52" r="4" fill="black"/>
<circle cx="77" cy="50" r="4" fill="black"/>
<path d="M82.0495 82.6018C83.1266 82.6017 84 83.1543 84 82.9577C84 82.7611 83.1266 82.6018 82.0495 82.6018L63.5052 81L45.9505 82.6018C44.8733 82.6018 44 82.7611 44 82.9577C44 83.1543 44.8733 82.1568 45.9505 82.1568L63.5052 81.6229L82.0495 82.6018Z" fill="#25313D"/>
<path d="M82.0495 82.6018C83.1266 82.6017 84 83.1543 84 82.9577C84 82.7611 83.1266 82.6018 82.0495 82.6018ZM82.0495 82.6018L63.5052 81L45.9505 82.6018C44.8733 82.6018 44 82.7611 44 82.9577C44 83.1543 44.8733 82.1568 45.9505 82.1568L63.5052 81.6229L82.0495 82.6018Z" stroke="black" stroke-width="5"/>
<path d="M82.0495 82.6018C83.1266 82.6017 84 83.1543 84 82.9577C84 82.7611 83.1266 82.6018 82.0495 82.6018ZM82.0495 82.6018L63.5052 81L45.9505 82.6018C44.8733 82.6018 44 82.7611 44 82.9577C44 83.1543 44.8733 82.1568 45.9505 82.1568L63.5052 81.6229L82.0495 82.6018Z" stroke="black" stroke-opacity="0.2" stroke-width="5"/>
<path d="M82.0495 82.6018C83.1266 82.6017 84 83.1543 84 82.9577C84 82.7611 83.1266 82.6018 82.0495 82.6018ZM82.0495 82.6018L63.5052 81L45.9505 82.6018C44.8733 82.6018 44 82.7611 44 82.9577C44 83.1543 44.8733 82.1568 45.9505 82.1568L63.5052 81.6229L82.0495 82.6018Z" stroke="black" stroke-opacity="0.2" stroke-width="5"/>
<path d="M82.0495 82.6018C83.1266 82.6017 84 83.1543 84 82.9577C84 82.7611 83.1266 82.6018 82.0495 82.6018ZM82.0495 82.6018L63.5052 81L45.9505 82.6018C44.8733 82.6018 44 82.7611 44 82.9577C44 83.1543 44.8733 82.1568 45.9505 82.1568L63.5052 81.6229L82.0495 82.6018Z" stroke="black" stroke-width="5"/>
</svg>
